<svg width="130" height="130" viewBox="0 0 130 130" fill="none" xmlns="http://www.w3.org/2000/svg">
<path d="M19.108 115.906L8.89688 1.37311H121.103L110.882 115.889L64.932 128.628L19.108 115.906Z" fill="#1572B6"/>
<path d="M65.001 118.891L102.131 108.597L110.867 10.7372H65.001V118.891Z" fill="#33A9DC"/>
<path d="M65.001 52.2326H83.589L84.8727 37.8483H65.001V23.8011H100.225L99.8877 27.5701L96.4346 66.2797H65.001V52.2326Z" fill="white"/>
<path d="M65.0843 88.7138L65.0224 88.7321L49.3787 84.5081L48.3783 73.3047H34.2794L36.2467 95.3611L65.0203 103.347L65.0843 103.329V88.7138Z" fill="#EBEBEB"/>
<path d="M82.3946 65.6855L80.7026 84.4969L65.0356 88.726V103.341L93.8326 95.3601L94.0438 92.9866L96.4874 65.6855H82.3946Z" fill="white"/>
<path d="M65.0488 23.8011V37.8483H31.1188L30.8374 34.6917L30.1976 27.5701L29.8614 23.8011H65.0488ZM65.001 52.2346V66.2817H49.5544L49.2731 63.1251L48.6322 56.0036L48.297 52.2346H65.001Z" fill="#EBEBEB"/>
</svg>
