<svg width="131" height="130" viewBox="0 0 131 130" fill="none" xmlns="http://www.w3.org/2000/svg">
<path d="M24.4769 110.504L15.3484 8.125H115.652L106.511 110.488L65.4391 121.875L24.4769 110.504Z" fill="#E44F26"/>
<path d="M65.5 113.173L98.6906 103.972L106.499 16.4978H65.5V113.173Z" fill="#F1662A"/>
<path d="M65.5 54.466H48.8844L47.7388 41.6082H65.5V29.051H34.0156L34.3163 32.4228L37.3997 67.0231H65.5V54.466ZM65.5 87.0757L65.4431 87.0919L51.46 83.3178L50.5663 73.3038H37.9603L39.7194 93.015L65.4431 100.157L65.5 100.141V87.0757Z" fill="#EBEBEB"/>
<path d="M65.4553 54.466V67.0231H80.9172L79.4628 83.3097L65.4553 87.0878V100.153L91.1994 93.015L91.3863 90.8944L94.3356 57.8378L94.6444 54.466H65.4553ZM65.4553 29.051V41.6082H95.7859L96.0378 38.7888L96.6106 32.4228L96.9113 29.051H65.4553Z" fill="white"/>
</svg>
