<svg width="130" height="130" viewBox="0 0 130 130" fill="none" xmlns="http://www.w3.org/2000/svg">
<g clip-path="url(#clip0_41_33)">
<path d="M99.5312 0H30.4688C13.6413 0 0 13.6413 0 30.4688V99.5312C0 116.359 13.6413 130 30.4688 130H99.5312C116.359 130 130 116.359 130 99.5312V30.4688C130 13.6413 116.359 0 99.5312 0Z" fill="#F0DB4F"/>
<path d="M34.1819 108.637L44.1299 102.617C46.0495 106.02 47.7953 108.899 51.9832 108.899C55.9975 108.899 58.5284 107.329 58.5284 101.221V59.6827H70.7454V101.393C70.7454 114.047 63.3283 119.806 52.5068 119.806C42.7339 119.806 37.0612 114.745 34.1814 108.636M77.381 107.328L87.328 101.569C89.9468 105.845 93.3502 108.987 99.3708 108.987C104.433 108.987 107.661 106.456 107.661 102.965C107.661 98.7766 104.345 97.2928 98.7599 94.8502L95.7064 93.5406C86.8923 89.7889 81.0454 85.0764 81.0454 75.1283C81.0454 65.9654 88.0268 58.9839 98.9351 58.9839C106.702 58.9839 112.286 61.6896 116.3 68.7578L106.788 74.8663C104.694 71.1141 102.426 69.6307 98.9351 69.6307C95.357 69.6307 93.0881 71.8997 93.0881 74.8663C93.0881 78.5312 95.357 80.015 100.593 82.2844L103.647 83.593C114.031 88.044 119.878 92.5808 119.878 102.79C119.878 113.787 111.239 119.807 99.6328 119.807C88.2888 119.807 80.9585 114.397 77.381 107.328Z" fill="#323330"/>
</g>
<defs>
<clipPath id="clip0_41_33">
<rect width="130" height="130" fill="white"/>
</clipPath>
</defs>
</svg>
