<svg width="130" height="130" viewBox="0 0 130 130" fill="none" xmlns="http://www.w3.org/2000/svg">
<path d="M95.2747 93.5512C96.072 86.9162 95.8333 85.9422 100.775 87.0177L102.03 87.1274C105.83 87.3001 110.802 86.516 113.723 85.1591C120.01 82.2412 123.738 77.3713 117.539 78.65C103.398 81.5679 102.426 76.7792 102.426 76.7792C117.358 54.6234 123.601 26.4977 118.212 19.6127C103.516 0.834842 78.0772 9.71445 77.6516 9.94398L77.5155 9.96937C74.7215 9.38945 71.5944 9.04312 68.0814 8.98625C61.6819 8.88062 56.8262 10.6641 53.1425 13.457C53.1425 13.457 7.76137 -5.23961 9.87285 36.9698C10.3218 45.9489 22.7429 104.913 37.5588 87.1031C42.9741 80.5909 48.2066 75.0841 48.2066 75.0841C50.8046 76.8097 53.9164 77.6912 57.1786 77.3744L57.4315 77.1591C57.3523 77.9675 57.3868 78.7587 57.5321 79.6951C53.7164 83.9597 54.8376 84.7082 47.2072 86.2784C39.4864 87.8688 44.0222 90.7014 46.9828 91.4418C50.573 92.3396 58.8778 93.6112 64.4901 85.7563L64.2667 86.6521C65.7637 87.8505 65.6632 95.2616 65.8744 100.556C66.0867 105.851 66.4411 110.793 67.5207 113.706C68.6004 116.62 69.8739 124.123 79.9022 121.974C88.2832 120.182 94.6907 117.597 95.2747 93.5512Z" fill="black"/>
<path d="M76.637 127.213C72.2017 127.213 69.3133 125.498 67.5593 123.841C64.9116 121.343 63.8614 118.124 63.2338 116.202L62.9626 115.399C61.6992 111.989 61.2706 107.078 61.0167 100.755C60.9781 99.8055 60.9517 98.8275 60.9222 97.7905C60.9009 97.0318 60.8745 96.0802 60.8359 95.0849C59.238 95.8468 57.5419 96.3827 55.7964 96.6774C52.6692 97.2116 49.3075 97.0389 45.8026 96.1624C43.3296 95.5439 40.76 94.2622 39.2955 92.2828C35.0268 96.0213 30.9552 95.5145 28.7371 94.7741C24.8239 93.469 21.322 89.8016 18.0303 83.5646C15.6853 79.1213 13.4174 73.3322 11.2886 66.3569C7.58159 54.21 5.22635 41.4162 5.01713 37.2156C4.35901 24.0683 7.89846 14.6656 15.5349 9.27166C27.5813 0.762758 45.8331 5.76674 52.4874 8.0387C56.9582 5.34424 62.2181 4.03307 68.1616 4.12752C71.3537 4.17932 74.3935 4.45963 77.2169 4.96338C80.1622 4.03713 85.9797 2.70768 92.6392 2.79096C104.909 2.93721 115.076 7.71878 122.04 16.6187C127.011 22.9684 124.553 36.3025 122.647 43.6861C119.964 54.0719 115.262 65.1178 109.487 74.7338C111.055 74.7449 113.327 74.5571 116.557 73.8898C122.929 72.5746 124.793 75.9911 125.299 77.5207C127.325 83.6571 118.517 88.2944 115.77 89.57C112.25 91.2042 106.511 92.1995 101.81 91.9842L101.605 91.971L100.37 91.8623L100.248 92.8921L100.13 93.8986C99.8146 106.085 98.0738 113.803 94.4917 118.902C90.7369 124.249 85.5186 125.747 80.9219 126.732C79.3538 127.067 77.9289 127.213 76.637 127.213ZM67.3034 82.8598C70.1664 85.151 70.4173 89.4624 70.6417 97.5193C70.6702 98.5248 70.6966 99.4764 70.7321 100.365C70.8398 103.057 71.0927 109.358 72.0799 112.021C72.219 112.398 72.3439 112.78 72.476 113.185C73.5759 116.553 74.1274 118.242 78.8835 117.225C82.876 116.369 84.9285 115.602 86.5353 113.314C88.8702 109.989 90.1763 103.3 90.416 93.4335L95.2737 93.5513L90.4495 92.9724L90.5917 91.7678C91.0538 87.7968 91.3869 84.9286 94.0407 83.0314C96.1705 81.51 98.5968 81.6573 100.53 82.0057C98.4059 80.401 97.8189 78.519 97.6625 77.7471L97.2572 75.7514L98.3957 74.0624C104.954 64.3328 110.361 52.3748 113.233 41.2537C116.184 29.8269 115.285 23.7585 114.385 22.6109C102.472 7.38971 81.8157 13.6744 79.6585 14.3874L79.2939 14.5844L77.4657 14.9246L76.5293 14.7306C73.9476 14.1944 71.0795 13.8978 68.0052 13.8481C63.1749 13.7668 59.2779 14.9084 56.0828 17.3327L53.8657 19.0135L51.2931 17.9542C45.7965 15.7067 29.6521 11.1881 21.1331 17.222C16.4043 20.5715 14.2502 27.1345 14.7296 36.7291C14.888 39.8968 17.0401 51.8883 20.5907 63.5182C25.4972 79.5905 29.9558 84.9296 31.8174 85.5502C32.1424 85.6599 32.9854 85.0048 33.8243 83.9973C37.3223 79.8043 40.9443 75.7163 44.6854 71.7387L47.4987 68.7782L50.9 71.0379C52.2711 71.9489 53.7834 72.4659 55.3363 72.5634L63.4481 65.6449L62.273 77.6375C62.2466 77.9066 62.2334 78.2732 62.339 78.9537L62.6924 81.2267L61.1589 82.941L60.9821 83.1401L65.4387 85.1967L67.3034 82.8598Z" fill="black"/>
<path d="M117.539 78.65C103.397 81.5679 102.425 76.7792 102.425 76.7792C117.358 54.6223 123.6 26.4956 118.213 19.6127C103.517 0.835863 78.0762 9.71547 77.6516 9.94602L77.5145 9.97039C74.7206 9.39047 71.5934 9.04516 68.0784 8.98829C61.6789 8.88368 56.8252 10.6661 53.1416 13.4591C53.1416 13.4591 7.75939 -5.23656 9.86985 36.9718C10.3188 45.952 22.7399 104.916 37.5558 87.1061C42.9711 80.5939 48.2026 75.0872 48.2026 75.0872C50.8016 76.8127 53.9124 77.6943 57.1736 77.3774L57.4275 77.1621C57.3483 77.9706 57.3849 78.7617 57.5291 79.6981C53.7124 83.9627 54.8336 84.7113 47.2032 86.2814C39.4824 87.8719 44.0182 90.7045 46.9798 91.4449C50.569 92.3427 58.8748 93.6142 64.4861 85.7594L64.2617 86.6552C65.7577 87.8536 66.8078 94.447 66.6321 100.424C66.4564 106.401 66.3376 110.505 67.5167 113.71C68.6949 116.916 69.8689 124.127 79.8992 121.978C88.2802 120.182 92.623 115.527 93.2283 107.764C93.6569 102.244 94.6268 103.061 94.6888 98.1256L95.4677 95.7897C96.3656 88.3076 95.6099 85.8945 100.774 87.0167L102.029 87.1264C105.829 87.2991 110.803 86.515 113.723 85.1581C120.009 82.2423 123.738 77.3713 117.539 78.65Z" fill="#336791"/>
<path d="M77.1438 124.218C68.7831 124.218 66.1344 117.597 65.0507 114.89C63.4643 110.922 63.1221 95.5226 63.4755 82.8943C63.4807 82.6814 63.5281 82.4715 63.6148 82.2769C63.7015 82.0824 63.8258 81.9068 63.9806 81.7605C64.1355 81.6142 64.3177 81.4999 64.5169 81.4244C64.716 81.3488 64.9282 81.3133 65.1411 81.3201C65.3538 81.3259 65.5633 81.3735 65.7576 81.4604C65.9519 81.5472 66.1271 81.6714 66.2733 81.826C66.4195 81.9806 66.5338 82.1626 66.6097 82.3614C66.6855 82.5602 66.7214 82.772 66.7153 82.9847C66.3081 97.5498 66.886 110.749 68.06 113.686C69.8922 118.265 72.671 122.271 80.5268 120.588C87.9846 118.989 90.7775 116.161 92.0217 108.949C92.9764 103.415 94.8644 87.6708 95.097 84.564C95.1125 84.3517 95.1698 84.1445 95.2656 83.9544C95.3614 83.7643 95.4937 83.5949 95.655 83.456C95.8164 83.3172 96.0035 83.2115 96.2058 83.1451C96.4081 83.0786 96.6214 83.0528 96.8337 83.069C97.2621 83.1015 97.6601 83.3026 97.9404 83.6282C98.2207 83.9538 98.3603 84.3773 98.3287 84.8057C98.086 88.0405 96.2071 103.754 95.2158 109.501C93.7472 118.019 89.9498 121.882 81.2063 123.757C79.7204 124.075 78.3707 124.217 77.1438 124.218ZM31.8103 91.8796C31.0795 91.8772 30.3539 91.7572 29.6613 91.5241C24.2307 89.7122 19.0581 80.8681 14.2867 65.2346C10.6549 53.3345 8.35346 40.9135 8.15135 36.8763C7.55315 24.9082 10.6346 16.441 17.3123 11.7112C30.5225 2.35119 52.7454 11.2643 53.6849 11.6482C54.0828 11.8108 54.4 12.1248 54.5664 12.5211C54.7329 12.9175 54.7351 13.3638 54.5725 13.7617C54.41 14.1597 54.096 14.4768 53.6996 14.6433C53.3032 14.8098 52.857 14.8119 52.459 14.6494C52.2447 14.562 30.9349 6.0247 19.179 14.3599C13.4692 18.4082 10.8478 25.9299 11.3871 36.7149C11.5567 40.1162 13.7068 52.2387 17.3854 64.2881C21.6449 78.2448 26.4925 87.0513 30.686 88.4498C31.3442 88.6692 33.347 89.3364 36.21 85.8935C39.5487 81.8835 43.0127 77.9795 46.5968 74.1874C46.8967 73.8882 47.3018 73.7184 47.7253 73.7141C48.1489 73.7099 48.5573 73.8716 48.8631 74.1647C49.1689 74.4578 49.3478 74.8589 49.3616 75.2822C49.3754 75.7056 49.2229 76.1175 48.9368 76.4299C48.8881 76.4806 44.0141 81.576 38.7024 87.9663C36.1867 90.9919 33.7756 91.8796 31.8103 91.8796ZM102.324 78.2245C102.03 78.2241 101.742 78.1438 101.49 77.9923C101.239 77.8408 101.033 77.6238 100.895 77.3644C100.757 77.1049 100.692 76.8129 100.708 76.5195C100.723 76.2261 100.817 75.9424 100.982 75.6986C116.077 53.299 121.375 26.2336 116.837 20.4344C111.126 13.1361 103.06 9.32447 92.8646 9.10408C85.3155 8.94158 79.3152 10.8692 78.3341 11.2054L78.0873 11.306C77.1011 11.6157 76.3445 11.0754 76.0591 10.4437C75.8964 10.0818 75.8717 9.67278 75.9898 9.29392C76.1078 8.91505 76.3604 8.59248 76.6999 8.38705C76.7467 8.35962 76.8949 8.29665 77.1356 8.20829C78.8023 7.5979 84.894 5.76978 92.4391 5.85611C103.721 5.97595 113.04 10.3259 119.388 18.4377C122.391 22.2757 122.398 31.1177 119.407 42.6979C116.358 54.5045 110.621 67.1928 103.668 77.5105C103.357 77.9746 102.845 78.2245 102.324 78.2245ZM103.096 88.594C100.518 88.594 98.2078 88.2304 96.8246 87.4017C95.4027 86.5495 95.1315 85.3917 95.096 84.7773C94.708 77.9624 98.4678 76.7762 100.385 76.2349C100.118 75.8306 99.7384 75.3553 99.3453 74.8648C98.2271 73.4673 96.6956 71.5538 95.5154 68.6918C95.3306 68.2449 94.7517 67.206 94.0814 66.0024C90.4464 59.4842 82.8831 45.9205 87.7418 38.9746C89.9904 35.7602 94.4683 34.4947 101.066 35.2006C99.1249 29.2876 89.8828 10.791 67.9524 10.4315C61.3569 10.3218 55.9477 12.35 51.8831 16.4542C42.7831 25.6445 43.1122 42.2734 43.1173 42.4399C43.1229 42.6527 43.0865 42.8644 43.0103 43.0631C42.9341 43.2618 42.8195 43.4435 42.673 43.5979C42.5265 43.7523 42.3511 43.8763 42.1567 43.9629C41.9623 44.0495 41.7528 44.0969 41.54 44.1025C41.3273 44.1081 41.1155 44.0718 40.9169 43.9955C40.7182 43.9193 40.5365 43.8047 40.3821 43.6582C40.2277 43.5117 40.1037 43.3363 40.0171 43.1419C39.9305 42.9475 39.883 42.738 39.8774 42.5252C39.8571 41.7869 39.5179 24.3364 49.5807 14.1731C54.2902 9.41689 60.4896 7.06876 68.0062 7.19165C82.036 7.4222 91.067 14.5549 96.1715 20.4974C101.736 26.974 104.464 34.1179 104.689 36.5026C104.856 38.2759 103.584 38.6303 103.327 38.6831L102.742 38.6963C96.267 37.6594 92.1131 38.3795 90.3956 40.8332C86.6998 46.1155 93.8549 58.9459 96.9099 64.4252C97.6899 65.8227 98.2525 66.8332 98.5105 67.4568C99.5139 69.8902 100.823 71.5254 101.874 72.8396C102.799 73.9954 103.601 74.9978 103.887 76.1739C104.02 76.4075 105.908 79.2005 117.112 76.8879C119.92 76.309 121.604 76.8036 122.119 78.3606C123.131 81.4227 117.45 84.9946 114.304 86.4551C111.486 87.7653 106.988 88.594 103.096 88.594ZM98.3267 84.5102C98.6821 84.8687 100.46 85.4872 104.143 85.3288C107.418 85.1886 110.871 84.4767 112.943 83.5149C115.592 82.2839 117.362 80.9078 118.278 79.9683L117.77 80.0617C110.607 81.5405 105.54 81.3435 102.71 79.4757C102.52 79.3503 102.337 79.2144 102.162 79.0685C101.855 79.1893 101.572 79.2685 101.369 79.3254C99.7648 79.7753 98.1053 80.2415 98.3267 84.5102ZM52.0528 93.5645C50.2734 93.5645 48.4006 93.3217 46.4881 92.8434C44.5067 92.3478 41.1663 90.8558 41.2171 88.4051C41.2749 85.6558 45.2735 84.8311 46.7786 84.5213C52.2163 83.4011 52.5707 82.9522 54.2699 80.794C54.7655 80.1653 55.382 79.3823 56.2229 78.4438C57.4711 77.0463 58.8351 76.3385 60.2773 76.3385C61.2817 76.3385 62.1054 76.6787 62.6498 76.9052C64.3845 77.6242 65.8317 79.363 66.4269 81.442C66.9642 83.3178 66.7072 85.1236 65.7058 86.5262C62.4182 91.13 57.6966 93.5645 52.0528 93.5645ZM44.7179 88.5442C45.2064 88.9221 46.1855 89.4268 47.2753 89.699C48.9317 90.1134 50.5385 90.3236 52.0538 90.3236C56.6708 90.3236 60.3778 88.4122 63.0703 84.6422C63.6319 83.8561 63.4633 82.8577 63.313 82.3327C62.9981 81.2327 62.2161 80.2324 61.4107 79.8982C60.974 79.7174 60.6114 79.5793 60.2783 79.5793C60.0996 79.5793 59.5552 79.5793 58.6391 80.6041C58.0068 81.315 57.3991 82.0473 56.8171 82.7999C54.7005 85.4872 53.7306 86.3992 47.4337 87.6962C45.8971 88.011 45.1089 88.332 44.7179 88.5442ZM57.1786 81.0692C56.7918 81.0686 56.4179 80.9297 56.1245 80.6775C55.8312 80.4253 55.6377 80.0765 55.579 79.6941C55.5384 79.4251 55.5112 79.1543 55.4978 78.8826C51.3703 78.8054 47.388 77.0342 44.3645 73.8796C40.5417 69.8913 38.8019 64.3652 39.5921 58.7194C40.4503 52.5881 40.1293 47.1758 39.9567 44.2681C39.9089 43.4596 39.8744 42.8756 39.8764 42.4714C39.8795 41.9585 39.8896 40.5986 44.4356 38.2942C46.0524 37.4745 49.2943 36.0445 52.8358 35.6779C58.7031 35.0716 62.5706 37.6848 63.7284 43.0371C66.8535 57.4874 63.9762 63.8788 61.8749 68.5466C61.4839 69.4159 61.1142 70.2366 60.8186 71.0318L60.5576 71.7326C59.4475 74.7094 58.4878 77.281 58.7823 79.2015C58.8146 79.4118 58.8052 79.6265 58.7546 79.8332C58.7039 80.0399 58.613 80.2346 58.4871 80.4061C58.3612 80.5777 58.2027 80.7228 58.0207 80.8331C57.8387 80.9434 57.6368 81.0167 57.4264 81.0489L57.1786 81.0692ZM43.1274 42.9203L43.1904 44.0771C43.3692 47.0976 43.7023 52.7181 42.8004 59.1693C42.1494 63.826 43.5713 68.3709 46.7035 71.6371C49.1785 74.2188 52.4356 75.6438 55.7831 75.6438H55.8522C56.227 74.0645 56.8496 72.3968 57.5199 70.6002L57.7789 69.9035C58.113 69.0056 58.504 68.1363 58.9184 67.2161C60.9405 62.723 63.4582 57.1299 60.5586 43.7227C59.9848 41.0668 58.5924 39.5302 56.3042 39.0234C51.6039 37.9854 44.5991 41.5208 43.1274 42.9203ZM52.9079 42.2327C52.8267 42.8056 53.9571 44.3351 55.4317 44.5392C56.9034 44.7454 58.1628 43.549 58.243 42.9762C58.3232 42.4034 57.1939 41.7717 55.7192 41.5665C54.2445 41.3613 52.9861 41.6599 52.9079 42.2327ZM55.7699 45.1029L55.3566 45.0745C54.4425 44.9475 53.5183 44.3717 52.8856 43.5327C52.6631 43.2382 52.3006 42.6674 52.3727 42.1576C52.4753 41.4101 53.3873 40.9622 54.8102 40.9622C55.1281 40.9622 55.4592 40.9856 55.7923 41.0323C56.5703 41.1399 57.2924 41.3644 57.8256 41.662C58.7498 42.1779 58.8178 42.7538 58.7762 43.0513C58.6624 43.877 57.3492 45.1029 55.7699 45.1029ZM53.4452 42.3282C53.4909 42.6817 54.3664 43.8476 55.5059 44.005L55.771 44.0233C56.8231 44.0233 57.6092 43.1956 57.7017 42.9244C57.6042 42.7395 56.9278 42.2805 55.645 42.1017C55.3688 42.0627 55.0902 42.0427 54.8112 42.0418C53.9865 42.0418 53.5488 42.2277 53.4452 42.3282ZM97.7315 41.0638C97.8117 41.6366 96.6824 43.1661 95.2087 43.3713C93.736 43.5764 92.4756 42.381 92.3944 41.8082C92.3172 41.2354 93.4466 40.6027 94.9192 40.3985C96.3919 40.1924 97.6503 40.492 97.7315 41.0638ZM94.8685 43.6638C93.4506 43.6638 92.2268 42.5608 92.1263 41.8448C92.0095 40.9856 93.4242 40.3325 94.8806 40.1304C95.2016 40.0857 95.5195 40.0634 95.8252 40.0634C97.0825 40.0634 97.9153 40.432 97.9986 41.0272C98.0524 41.4121 97.7569 42.0063 97.2481 42.5425C96.9119 42.8949 96.206 43.5053 95.2442 43.6384L94.8685 43.6638ZM95.8262 40.6037C95.5445 40.6037 95.2547 40.6243 94.9568 40.6656C93.4933 40.8698 92.6199 41.4568 92.6625 41.7717C92.7113 42.118 93.6457 43.1245 94.8695 43.1245L95.1711 43.1031C95.9704 42.9924 96.5706 42.4704 96.8571 42.1698C97.307 41.6975 97.4857 41.2527 97.4644 41.1013C97.436 40.9002 96.8956 40.6037 95.8262 40.6037ZM99.8531 73.9599C99.5595 73.96 99.2714 73.8804 99.0196 73.7294C98.7678 73.5784 98.5618 73.3617 98.4237 73.1027C98.2856 72.8436 98.2205 72.5518 98.2354 72.2586C98.2503 71.9654 98.3447 71.6818 98.5085 71.4381C101.96 66.2838 101.328 61.0279 100.717 55.9447C100.456 53.7794 100.188 51.5399 100.257 49.3909C100.328 47.1799 100.61 45.3558 100.881 43.5917C101.203 41.5015 101.508 39.5271 101.382 37.1831C101.37 36.9706 101.401 36.758 101.471 36.5573C101.542 36.3566 101.652 36.1718 101.794 36.0135C101.936 35.8551 102.108 35.7263 102.3 35.6344C102.492 35.5425 102.7 35.4893 102.912 35.4778C103.125 35.4664 103.337 35.4968 103.538 35.5676C103.739 35.6383 103.923 35.7478 104.082 35.8899C104.402 36.177 104.594 36.5793 104.617 37.0084C104.762 39.6876 104.417 41.922 104.084 44.0842C103.827 45.7529 103.561 47.4785 103.497 49.4945C103.435 51.3978 103.678 53.4188 103.935 55.5577C104.585 60.9629 105.321 67.0892 101.202 73.2408C101.053 73.4621 100.853 73.6434 100.617 73.7688C100.382 73.8942 100.12 73.9598 99.8531 73.9599Z" fill="white"/>
</svg>
