<svg width="130" height="130" viewBox="0 0 130 130" fill="none" xmlns="http://www.w3.org/2000/svg">
<g clip-path="url(#clip0_41_64)">
<path d="M99.5312 0H30.4688C13.6413 0 0 13.6413 0 30.4688V99.5312C0 116.359 13.6413 130 30.4688 130H99.5312C116.359 130 130 116.359 130 99.5312V30.4688C130 13.6413 116.359 0 99.5312 0Z" fill="#242938"/>
<path d="M65.0005 74.6235C70.233 74.6235 74.4742 70.3818 74.4742 65.1498C74.4742 59.9178 70.233 55.676 65.0005 55.676C59.768 55.676 55.5267 59.9178 55.5267 65.1498C55.5267 70.3818 59.7685 74.6235 65.0005 74.6235Z" fill="#00D8FF"/>
<path d="M65.001 45.8875C77.7207 45.8875 89.537 47.7125 98.4466 50.7802C109.181 54.4756 115.781 60.0773 115.781 65.1498C115.781 70.4356 108.787 76.3867 97.2588 80.2059C88.5437 83.0934 77.0753 84.6005 65.001 84.6005C52.6216 84.6005 40.8987 83.1858 32.0851 80.1739C20.9346 76.3628 14.2188 70.3351 14.2188 65.1498C14.2188 60.1184 20.5207 54.5599 31.1045 50.8701C40.0471 47.7521 52.1549 45.8875 64.999 45.8875H65.001Z" stroke="#00D8FF" stroke-width="0.556938"/>
<path d="M48.2326 55.574C54.5873 44.5555 62.071 35.231 69.1793 29.0459C77.7431 21.5927 85.8935 18.6738 90.2871 21.2073C94.866 23.8479 96.5271 32.8808 94.0769 44.7748C92.2259 53.7667 87.8008 64.4541 81.7685 74.914C75.5839 85.638 68.5024 95.0864 61.491 101.215C52.6191 108.97 44.0416 111.777 39.55 109.186C35.1914 106.675 33.5248 98.4374 35.616 87.4255C37.3826 78.1208 41.8164 66.7007 48.2305 55.574H48.2326Z" stroke="#00D8FF" stroke-width="0.556938"/>
<path d="M48.2483 74.9419C41.8757 63.9356 37.537 52.7932 35.7261 43.5459C33.5461 32.404 35.0873 23.8855 39.4773 21.3444C44.0522 18.6956 52.7069 21.7679 61.7876 29.8309C68.6532 35.9267 75.7031 45.0963 81.7527 55.546C87.9551 66.2599 92.6037 77.1144 94.412 86.2489C96.7002 97.8087 94.8482 106.641 90.3606 109.239C86.0067 111.759 78.0386 109.091 69.5424 101.779C62.3639 95.6023 54.6838 86.058 48.2483 74.9419Z" stroke="#00D8FF" stroke-width="0.556938"/>
</g>
<defs>
<clipPath id="clip0_41_64">
<rect width="130" height="130" fill="white"/>
</clipPath>
</defs>
</svg>
