<svg width="130" height="130" viewBox="0 0 130 130" fill="none" xmlns="http://www.w3.org/2000/svg">
<g clip-path="url(#clip0_41_106)">
<path d="M99.5312 0H30.4688C13.6413 0 0 13.6413 0 30.4688V99.5312C0 116.359 13.6413 130 30.4688 130H99.5312C116.359 130 130 116.359 130 99.5312V30.4688C130 13.6413 116.359 0 99.5312 0Z" fill="#242938"/>
<path fill-rule="evenodd" clip-rule="evenodd" d="M42.1484 55.8594C45.1953 43.6719 52.8125 37.5781 65 37.5781C83.2812 37.5781 85.5664 51.2891 94.707 53.5742C100.801 55.0983 106.133 52.8132 110.703 46.7188C107.656 58.9062 100.039 65 87.8516 65C69.5703 65 67.2852 51.2891 58.1445 49.0039C52.0508 47.4805 46.7188 49.7656 42.1484 55.8594ZM19.2969 83.2812C22.3438 71.0938 29.9609 65 42.1484 65C60.4297 65 62.7148 78.7109 71.8555 80.9961C77.9492 82.5202 83.2812 80.2351 87.8516 74.1406C84.8047 86.3281 77.1875 92.4219 65 92.4219C46.7188 92.4219 44.4336 78.7109 35.293 76.4258C29.1992 74.9017 23.8672 77.1868 19.2969 83.2812Z" fill="url(#paint0_linear_41_106)"/>
</g>
<defs>
<linearGradient id="paint0_linear_41_106" x1="43.9258" y1="37.5781" x2="83.0273" y2="94.1992" gradientUnits="userSpaceOnUse">
<stop stop-color="#32B1C1"/>
<stop offset="1" stop-color="#14C6B7"/>
</linearGradient>
<clipPath id="clip0_41_106">
<rect width="130" height="130" fill="white"/>
</clipPath>
</defs>
</svg>
