<svg width="130" height="130" viewBox="0 0 130 130" fill="none" xmlns="http://www.w3.org/2000/svg">
<g clip-path="url(#clip0_41_59)">
<path d="M99.5312 0H30.4688C13.6413 0 0 13.6413 0 30.4688V99.5312C0 116.359 13.6413 130 30.4688 130H99.5312C116.359 130 130 116.359 130 99.5312V30.4688C130 13.6413 116.359 0 99.5312 0Z" fill="#007ACC"/>
<path d="M28.7478 65.4311L28.7067 70.7551H45.627V118.834H57.5956V70.7551H74.5159V65.5342C74.5159 62.6453 74.4545 60.2311 74.3717 60.1692C74.3098 60.0869 64.0128 60.0453 51.5288 60.0661L28.8098 60.1281L28.7478 65.4311ZM104.897 59.9767C108.199 60.8024 110.716 62.2675 113.027 64.6608C114.224 65.9405 115.999 68.2724 116.143 68.8294C116.184 68.9945 110.53 72.7914 107.105 74.9166C106.981 74.9994 106.486 74.4626 105.929 73.6374C104.257 71.2024 102.504 70.1497 99.8207 69.9644C95.8796 69.6958 93.3416 71.7595 93.3624 75.2055C93.3624 76.2166 93.5066 76.8148 93.9194 77.6405C94.7858 79.4356 96.3955 80.5086 101.451 82.6958C110.757 86.6994 114.74 89.3405 117.216 93.0958C119.981 97.2847 120.6 103.971 118.723 108.944C116.659 114.35 111.542 118.023 104.34 119.24C102.111 119.633 96.8287 119.571 94.4354 119.137C89.2146 118.209 84.2624 115.629 81.2084 112.245C80.0115 110.925 77.6796 107.479 77.8243 107.231C77.8858 107.148 78.4225 106.818 79.0207 106.467C79.5986 106.137 81.7863 104.879 83.8495 103.682L87.5845 101.515L88.3685 102.671C89.4624 104.342 91.8557 106.633 93.3004 107.396C97.4477 109.583 103.143 109.274 105.95 106.756C107.146 105.663 107.642 104.528 107.642 102.856C107.642 101.35 107.456 100.69 106.672 99.5546C105.661 98.1104 103.597 96.8927 97.7367 94.3546C91.0305 91.4657 88.1415 89.6706 85.5004 86.8228C83.9734 85.1724 82.5287 82.5307 81.9305 80.3227C81.4354 78.4865 81.3115 73.8847 81.7035 72.0276C83.0858 65.5485 87.9765 61.0294 95.0336 59.6878C97.3243 59.2546 102.648 59.4197 104.897 59.9767Z" fill="white"/>
</g>
<defs>
<clipPath id="clip0_41_59">
<rect width="130" height="130" fill="white"/>
</clipPath>
</defs>
</svg>
